<svg xmlns="http://www.w3.org/2000/svg" viewBox="0 0 673.43 120.00" width="673.43" height="120.00" role="img" aria-label="GM Soluciones Digitales">
  <rect x="0.00" y="0.00" width="120.0" height="120.0" rx="27.0" fill="#1B7D52"/>
  <g transform="translate(13.62 81.60)"><path d="M22.20 0.90Q18.12 0.90 14.43 -0.55Q10.74 -2.01 7.90 -4.86Q5.07 -7.71 3.43 -11.91Q1.80 -16.11 1.80 -21.60Q1.80 -28.77 4.54 -33.80Q7.29 -38.82 11.92 -41.46Q16.56 -44.10 22.20 -44.10Q30.54 -44.10 35.31 -40.23Q40.08 -36.36 41.70 -29.28L33.36 -28.08Q32.19 -31.86 29.53 -34.12Q26.88 -36.39 22.74 -36.42Q18.63 -36.48 15.90 -34.65Q13.17 -32.82 11.80 -29.46Q10.44 -26.10 10.44 -21.60Q10.44 -17.10 11.80 -13.80Q13.17 -10.50 15.90 -8.67Q18.63 -6.84 22.74 -6.78Q25.53 -6.72 27.79 -7.74Q30.06 -8.76 31.62 -10.95Q33.18 -13.14 33.84 -16.56H27.00V-22.86H42.54Q42.60 -22.47 42.63 -21.48Q42.66 -20.49 42.66 -20.34Q42.66 -14.13 40.14 -9.33Q37.62 -4.53 33.03 -1.82Q28.44 0.90 22.20 0.90Z M45.36 0.00V-43.20H52.68L66.96 -14.52L81.24 -43.20H88.56V0.00H80.94V-25.80L68.40 0.00H65.52L52.98 -25.80V0.00Z" fill="#FFFFFF"/></g>
  <g transform="translate(151.20 80.59)"><path d="M18.66 0.87Q14.29 0.87 11.01 -0.12Q7.74 -1.12 5.55 -3.00Q3.37 -4.87 2.34 -7.52Q1.31 -10.17 1.44 -13.42L10.80 -15.48Q10.92 -12.60 12.01 -10.83Q13.10 -9.05 14.98 -8.21Q16.85 -7.36 19.16 -7.36Q21.03 -7.36 22.46 -7.83Q23.90 -8.30 24.74 -9.14Q25.58 -9.98 25.58 -11.11Q25.58 -12.60 24.46 -13.57Q23.34 -14.54 21.37 -15.23Q19.41 -15.91 16.91 -16.60Q14.23 -17.35 11.58 -18.25Q8.92 -19.16 6.74 -20.53Q4.56 -21.90 3.21 -24.09Q1.87 -26.27 1.87 -29.52Q1.87 -33.51 3.90 -36.32Q5.93 -39.12 9.52 -40.59Q13.10 -42.06 17.72 -42.06Q22.59 -42.06 26.40 -40.40Q30.20 -38.75 32.26 -35.57Q34.32 -32.39 33.88 -27.77L24.65 -26.27Q24.71 -28.14 24.27 -29.58Q23.84 -31.01 22.93 -32.01Q22.03 -33.01 20.65 -33.54Q19.28 -34.07 17.41 -34.07Q15.48 -34.07 14.20 -33.57Q12.92 -33.07 12.26 -32.20Q11.61 -31.32 11.61 -30.20Q11.61 -28.89 12.60 -28.02Q13.60 -27.14 15.48 -26.49Q17.35 -25.83 19.91 -25.15Q22.59 -24.40 25.30 -23.49Q28.02 -22.59 30.33 -21.12Q32.64 -19.66 34.04 -17.35Q35.44 -15.04 35.44 -11.48Q35.44 -7.36 33.29 -4.62Q31.14 -1.87 27.36 -0.50Q23.59 0.87 18.66 0.87Z M52.23 0.87Q47.49 0.87 43.80 -1.03Q40.12 -2.93 38.06 -6.77Q36.00 -10.61 36.00 -16.41Q36.00 -22.46 38.16 -26.30Q40.31 -30.14 44.02 -31.98Q47.74 -33.82 52.42 -33.82Q57.28 -33.82 60.93 -31.92Q64.58 -30.01 66.61 -26.18Q68.64 -22.34 68.64 -16.47Q68.64 -10.42 66.49 -6.58Q64.33 -2.75 60.62 -0.94Q56.91 0.87 52.23 0.87ZM52.48 -6.55Q54.41 -6.55 55.72 -7.64Q57.03 -8.74 57.72 -10.86Q58.41 -12.98 58.41 -15.91Q58.41 -19.16 57.66 -21.37Q56.91 -23.59 55.50 -24.77Q54.10 -25.96 52.10 -25.96Q50.23 -25.96 48.92 -24.87Q47.61 -23.77 46.92 -21.65Q46.24 -19.53 46.24 -16.54Q46.24 -11.79 47.89 -9.17Q49.55 -6.55 52.48 -6.55Z M70.39 0.00V-43.68H80.50V0.00Z M93.35 0.87Q87.98 0.87 85.39 -2.87Q82.80 -6.61 82.80 -14.35V-32.95H92.91V-14.48Q92.91 -10.86 93.94 -9.42Q94.97 -7.99 96.91 -7.99Q98.28 -7.99 99.43 -8.70Q100.59 -9.42 101.46 -10.89Q102.34 -12.36 102.80 -14.66Q103.27 -16.97 103.27 -20.22V-32.95H113.38V-14.85V0.00H104.77V-12.85H104.33Q103.96 -8.05 102.65 -5.02Q101.34 -2.00 99.03 -0.56Q96.72 0.87 93.35 0.87Z M131.79 0.87Q127.36 0.87 124.18 -0.47Q120.99 -1.81 119.00 -4.18Q117.00 -6.55 116.06 -9.61Q115.13 -12.67 115.13 -16.10Q115.13 -19.59 116.06 -22.74Q117.00 -25.90 118.97 -28.42Q120.93 -30.95 124.08 -32.39Q127.23 -33.82 131.66 -33.82Q136.91 -33.82 140.12 -31.86Q143.33 -29.89 144.61 -26.77Q145.89 -23.65 145.33 -20.03L136.59 -19.34Q136.72 -21.59 136.13 -23.06Q135.53 -24.52 134.35 -25.24Q133.16 -25.96 131.48 -25.96Q129.98 -25.96 128.82 -25.40Q127.67 -24.84 126.89 -23.68Q126.11 -22.53 125.70 -20.78Q125.30 -19.03 125.30 -16.60Q125.30 -13.48 126.02 -11.23Q126.73 -8.99 128.20 -7.80Q129.67 -6.61 131.91 -6.61Q134.22 -6.61 135.41 -7.74Q136.59 -8.86 136.97 -10.58Q137.34 -12.29 137.09 -13.98L146.39 -13.54Q146.76 -10.80 146.14 -8.21Q145.52 -5.62 143.74 -3.56Q141.96 -1.50 139.00 -0.31Q136.03 0.87 131.79 0.87Z M147.76 0.00V-32.95H157.87V0.00ZM152.76 -35.32Q149.88 -35.32 148.36 -36.54Q146.83 -37.75 146.83 -40.06Q146.83 -42.43 148.36 -43.65Q149.88 -44.87 152.76 -44.87Q155.69 -44.87 157.22 -43.62Q158.75 -42.37 158.75 -40.06Q158.75 -37.81 157.22 -36.57Q155.69 -35.32 152.76 -35.32Z M175.84 0.87Q171.10 0.87 167.42 -1.03Q163.74 -2.93 161.68 -6.77Q159.62 -10.61 159.62 -16.41Q159.62 -22.46 161.77 -26.30Q163.92 -30.14 167.64 -31.98Q171.35 -33.82 176.03 -33.82Q180.90 -33.82 184.55 -31.92Q188.20 -30.01 190.23 -26.18Q192.25 -22.34 192.25 -16.47Q192.25 -10.42 190.10 -6.58Q187.95 -2.75 184.24 -0.94Q180.52 0.87 175.84 0.87ZM176.09 -6.55Q178.03 -6.55 179.34 -7.64Q180.65 -8.74 181.33 -10.86Q182.02 -12.98 182.02 -15.91Q182.02 -19.16 181.27 -21.37Q180.52 -23.59 179.12 -24.77Q177.72 -25.96 175.72 -25.96Q173.85 -25.96 172.54 -24.87Q171.23 -23.77 170.54 -21.65Q169.85 -19.53 169.85 -16.54Q169.85 -11.79 171.51 -9.17Q173.16 -6.55 176.09 -6.55Z M194.00 0.00V-18.66V-32.95H202.55V-19.53H203.05Q203.42 -24.40 204.67 -27.55Q205.92 -30.70 208.23 -32.26Q210.54 -33.82 214.09 -33.82Q219.46 -33.82 222.18 -30.26Q224.89 -26.71 224.89 -19.66V0.00H214.78V-18.35Q214.78 -21.72 213.75 -23.40Q212.72 -25.08 210.48 -25.08Q208.60 -25.08 207.17 -23.77Q205.73 -22.46 204.92 -19.53Q204.11 -16.60 204.11 -11.67V0.00Z M242.86 0.87Q238.18 0.87 235.03 -0.47Q231.88 -1.81 229.94 -4.15Q228.01 -6.49 227.17 -9.48Q226.32 -12.48 226.32 -15.79Q226.32 -19.34 227.23 -22.59Q228.13 -25.83 230.04 -28.36Q231.94 -30.89 234.97 -32.35Q237.99 -33.82 242.24 -33.82Q246.48 -33.82 249.51 -32.35Q252.53 -30.89 254.34 -28.27Q256.15 -25.65 256.68 -22.21Q257.21 -18.78 256.53 -14.79L232.63 -14.41V-19.91L248.79 -20.22L247.48 -17.04Q247.85 -19.91 247.38 -21.87Q246.92 -23.84 245.67 -24.87Q244.42 -25.90 242.24 -25.90Q239.93 -25.90 238.56 -24.71Q237.18 -23.52 236.62 -21.37Q236.06 -19.22 236.06 -16.29Q236.06 -11.23 237.74 -8.92Q239.43 -6.61 242.92 -6.61Q244.42 -6.61 245.42 -6.99Q246.42 -7.36 247.04 -8.08Q247.67 -8.80 247.92 -9.83Q248.16 -10.86 248.10 -12.17L257.34 -11.67Q257.52 -9.61 256.93 -7.43Q256.34 -5.24 254.72 -3.37Q253.09 -1.50 250.19 -0.31Q247.29 0.87 242.86 0.87Z M273.25 0.87Q269.94 0.87 267.10 0.22Q264.26 -0.44 262.17 -1.87Q260.08 -3.31 258.99 -5.71Q257.90 -8.11 258.09 -11.54L266.88 -12.29Q267.01 -10.23 267.82 -8.89Q268.63 -7.55 270.07 -6.93Q271.50 -6.30 273.56 -6.30Q275.50 -6.30 276.90 -6.96Q278.30 -7.61 278.30 -9.17Q278.30 -9.98 277.80 -10.51Q277.31 -11.04 275.96 -11.51Q274.62 -11.98 272.06 -12.60Q268.88 -13.42 266.32 -14.23Q263.76 -15.04 261.96 -16.16Q260.15 -17.28 259.21 -18.94Q258.27 -20.59 258.27 -23.03Q258.27 -26.46 260.11 -28.86Q261.96 -31.26 265.20 -32.54Q268.44 -33.82 272.69 -33.82Q276.49 -33.82 279.80 -32.64Q283.11 -31.45 285.01 -28.77Q286.92 -26.08 286.42 -21.65L277.80 -20.84Q277.99 -22.65 277.31 -23.93Q276.62 -25.21 275.31 -25.86Q274.00 -26.52 272.13 -26.52Q270.00 -26.52 268.85 -25.74Q267.70 -24.96 267.70 -23.77Q267.70 -22.84 268.41 -22.18Q269.13 -21.53 270.66 -21.06Q272.19 -20.59 274.62 -20.03Q276.74 -19.59 279.05 -18.91Q281.36 -18.22 283.36 -17.07Q285.36 -15.91 286.60 -14.04Q287.85 -12.17 287.85 -9.30Q287.85 -6.24 286.17 -3.93Q284.48 -1.62 281.24 -0.37Q277.99 0.87 273.25 0.87Z M304.89 0.00V-8.42H315.56Q317.93 -8.42 319.96 -9.42Q321.98 -10.42 323.23 -13.01Q324.48 -15.60 324.48 -20.47Q324.48 -23.96 323.79 -26.33Q323.11 -28.70 321.83 -30.11Q320.55 -31.51 318.71 -32.14Q316.87 -32.76 314.50 -32.76H304.89V-41.18H314.06Q321.36 -41.18 325.98 -38.75Q330.60 -36.32 332.78 -31.79Q334.96 -27.27 334.96 -20.97Q334.96 -16.10 333.87 -12.54Q332.78 -8.99 330.84 -6.55Q328.91 -4.12 326.48 -2.68Q324.04 -1.25 321.30 -0.62Q318.55 0.00 315.87 0.00ZM300.27 0.00V-41.18H310.38V0.00Z M336.90 0.00V-32.95H347.01V0.00ZM341.89 -35.32Q339.02 -35.32 337.49 -36.54Q335.96 -37.75 335.96 -40.06Q335.96 -42.43 337.49 -43.65Q339.02 -44.87 341.89 -44.87Q344.82 -44.87 346.35 -43.62Q347.88 -42.37 347.88 -40.06Q347.88 -37.81 346.35 -36.57Q344.82 -35.32 341.89 -35.32Z M362.67 9.86Q357.12 9.86 353.87 8.99Q350.63 8.11 349.25 6.58Q347.88 5.05 347.88 3.06Q347.88 0.31 350.06 -1.34Q352.25 -3.00 356.43 -3.62V-3.93Q353.25 -3.93 351.44 -5.02Q349.63 -6.12 349.63 -8.05Q349.63 -9.86 351.28 -11.29Q352.93 -12.73 356.68 -12.73V-13.17Q353.31 -13.98 351.31 -16.29Q349.32 -18.60 349.32 -22.28Q349.32 -25.52 350.97 -27.89Q352.62 -30.26 355.80 -31.61Q358.99 -32.95 363.54 -32.95H379.95V-25.21L368.66 -26.64V-26.15Q373.84 -25.46 375.68 -23.81Q377.52 -22.15 377.52 -19.84Q377.52 -17.53 376.12 -15.72Q374.71 -13.92 371.78 -12.89Q368.85 -11.86 364.35 -11.86Q362.98 -11.86 361.58 -11.98Q360.17 -12.11 359.17 -12.36Q358.11 -11.92 357.52 -11.45Q356.93 -10.98 356.93 -10.48Q356.93 -10.17 357.18 -10.02Q357.43 -9.86 357.90 -9.80Q358.36 -9.73 358.99 -9.73H368.97Q370.28 -9.73 372.25 -9.58Q374.21 -9.42 376.18 -8.64Q378.14 -7.86 379.45 -6.05Q380.76 -4.24 380.76 -0.94Q380.76 2.81 378.80 5.18Q376.83 7.55 372.84 8.70Q368.85 9.86 362.67 9.86ZM362.67 1.00Q366.85 1.00 368.85 0.72Q370.84 0.44 371.47 -0.06Q372.09 -0.56 372.09 -1.19Q372.09 -2.06 371.59 -2.56Q371.09 -3.06 370.34 -3.28Q369.60 -3.49 368.88 -3.53Q368.16 -3.56 367.72 -3.56H359.30Q357.30 -2.87 356.58 -2.28Q355.87 -1.68 355.87 -0.94Q355.87 -0.06 356.71 0.34Q357.55 0.75 359.08 0.87Q360.61 1.00 362.67 1.00ZM363.73 -17.35Q365.73 -17.35 366.82 -18.60Q367.91 -19.84 367.91 -22.03Q367.91 -24.21 366.79 -25.55Q365.66 -26.89 363.67 -26.89Q361.73 -26.89 360.58 -25.55Q359.42 -24.21 359.42 -22.03Q359.42 -20.59 359.92 -19.53Q360.42 -18.47 361.39 -17.91Q362.36 -17.35 363.73 -17.35Z M382.01 0.00V-32.95H392.12V0.00ZM387.00 -35.32Q384.13 -35.32 382.61 -36.54Q381.08 -37.75 381.08 -40.06Q381.08 -42.43 382.61 -43.65Q384.13 -44.87 387.00 -44.87Q389.94 -44.87 391.47 -43.62Q393.00 -42.37 393.00 -40.06Q393.00 -37.81 391.47 -36.57Q389.94 -35.32 387.00 -35.32Z M407.91 0.75Q402.11 0.75 399.27 -2.22Q396.43 -5.18 396.43 -11.42V-25.08H392.81V-31.45H393.00Q396.86 -31.95 398.49 -34.04Q400.11 -36.13 400.48 -40.37V-40.50H406.41V-32.95H413.96V-24.84H406.41V-12.36Q406.41 -9.98 407.57 -8.99Q408.72 -7.99 410.40 -7.99Q411.28 -7.99 412.21 -8.24Q413.15 -8.49 413.96 -8.92V-0.12Q412.03 0.44 410.53 0.59Q409.03 0.75 407.91 0.75Z M424.51 0.87Q422.01 0.87 419.76 0.00Q417.52 -0.87 416.08 -2.84Q414.65 -4.80 414.65 -8.11Q414.65 -11.17 415.83 -13.07Q417.02 -14.98 419.02 -16.13Q421.01 -17.28 423.38 -17.88Q425.76 -18.47 428.06 -18.91Q431.31 -19.53 432.93 -19.91Q434.55 -20.28 435.15 -20.78Q435.74 -21.28 435.74 -22.15Q435.74 -23.96 434.40 -24.90Q433.06 -25.83 430.87 -25.83Q429.50 -25.83 428.13 -25.33Q426.75 -24.84 425.88 -23.56Q425.01 -22.28 425.07 -19.91L416.08 -20.53Q415.96 -24.46 417.27 -27.05Q418.58 -29.64 420.86 -31.11Q423.13 -32.57 425.85 -33.20Q428.56 -33.82 431.25 -33.82Q436.18 -33.82 439.36 -31.98Q442.54 -30.14 444.07 -26.68Q445.60 -23.21 445.60 -18.28V-12.42Q445.60 -10.36 445.60 -8.27Q445.60 -6.18 445.60 -4.12Q445.60 -2.06 445.60 0.00H436.86Q436.86 -2.25 436.86 -4.56Q436.86 -6.86 436.86 -9.42H436.49Q436.24 -6.61 434.65 -4.27Q433.06 -1.93 430.47 -0.53Q427.88 0.87 424.51 0.87ZM428.69 -6.49Q429.75 -6.49 430.97 -6.90Q432.18 -7.30 433.27 -8.24Q434.37 -9.17 435.05 -10.83Q435.74 -12.48 435.74 -14.91V-16.41L437.42 -16.60Q436.92 -15.79 435.77 -15.29Q434.62 -14.79 433.18 -14.51Q431.75 -14.23 430.28 -13.95Q428.81 -13.67 427.56 -13.20Q426.32 -12.73 425.54 -11.95Q424.76 -11.17 424.76 -9.80Q424.76 -8.17 425.91 -7.33Q427.07 -6.49 428.69 -6.49Z M447.84 0.00V-43.68H457.95V0.00Z M476.24 0.87Q471.56 0.87 468.41 -0.47Q465.25 -1.81 463.32 -4.15Q461.39 -6.49 460.54 -9.48Q459.70 -12.48 459.70 -15.79Q459.70 -19.34 460.61 -22.59Q461.51 -25.83 463.41 -28.36Q465.32 -30.89 468.34 -32.35Q471.37 -33.82 475.61 -33.82Q479.86 -33.82 482.88 -32.35Q485.91 -30.89 487.72 -28.27Q489.53 -25.65 490.06 -22.21Q490.59 -18.78 489.90 -14.79L466.00 -14.41V-19.91L482.16 -20.22L480.85 -17.04Q481.23 -19.91 480.76 -21.87Q480.29 -23.84 479.04 -24.87Q477.80 -25.90 475.61 -25.90Q473.30 -25.90 471.93 -24.71Q470.56 -23.52 470.00 -21.37Q469.44 -19.22 469.44 -16.29Q469.44 -11.23 471.12 -8.92Q472.80 -6.61 476.30 -6.61Q477.80 -6.61 478.80 -6.99Q479.79 -7.36 480.42 -8.08Q481.04 -8.80 481.29 -9.83Q481.54 -10.86 481.48 -12.17L490.71 -11.67Q490.90 -9.61 490.31 -7.43Q489.72 -5.24 488.09 -3.37Q486.47 -1.50 483.57 -0.31Q480.67 0.87 476.24 0.87Z M506.63 0.87Q503.32 0.87 500.48 0.22Q497.64 -0.44 495.55 -1.87Q493.46 -3.31 492.37 -5.71Q491.28 -8.11 491.46 -11.54L500.26 -12.29Q500.39 -10.23 501.20 -8.89Q502.01 -7.55 503.44 -6.93Q504.88 -6.30 506.94 -6.30Q508.87 -6.30 510.28 -6.96Q511.68 -7.61 511.68 -9.17Q511.68 -9.98 511.18 -10.51Q510.68 -11.04 509.34 -11.51Q508.00 -11.98 505.44 -12.60Q502.26 -13.42 499.70 -14.23Q497.14 -15.04 495.33 -16.16Q493.52 -17.28 492.59 -18.94Q491.65 -20.59 491.65 -23.03Q491.65 -26.46 493.49 -28.86Q495.33 -31.26 498.58 -32.54Q501.82 -33.82 506.06 -33.82Q509.87 -33.82 513.18 -32.64Q516.48 -31.45 518.39 -28.77Q520.29 -26.08 519.79 -21.65L511.18 -20.84Q511.37 -22.65 510.68 -23.93Q510.00 -25.21 508.68 -25.86Q507.37 -26.52 505.50 -26.52Q503.38 -26.52 502.23 -25.74Q501.07 -24.96 501.07 -23.77Q501.07 -22.84 501.79 -22.18Q502.51 -21.53 504.04 -21.06Q505.56 -20.59 508.00 -20.03Q510.12 -19.59 512.43 -18.91Q514.74 -18.22 516.73 -17.07Q518.73 -15.91 519.98 -14.04Q521.23 -12.17 521.23 -9.30Q521.23 -6.24 519.54 -3.93Q517.86 -1.62 514.61 -0.37Q511.37 0.87 506.63 0.87Z" fill="#F2F5F3"/></g>
</svg>
